<?xml version="1.0" standalone="no"?>
<!DOCTYPE svg PUBLIC "-//W3C//DTD SVG 20010904//EN"
 "http://www.w3.org/TR/2001/REC-SVG-20010904/DTD/svg10.dtd">
<svg version="1.0" xmlns="http://www.w3.org/2000/svg"
 width="512.000000pt" height="512.000000pt" viewBox="0 0 512.000000 512.000000"
 preserveAspectRatio="xMidYMid meet">
<metadata>
Created by potrace 1.14, written by Peter Selinger 2001-2017
</metadata>
<g transform="translate(0.000000,512.000000) scale(0.100000,-0.100000)"
fill="#000000" stroke="none">
<path d="M2378 5115 c-2 -1 -34 -5 -73 -9 -38 -3 -97 -10 -130 -15 -33 -6 -77
-12 -99 -16 -55 -8 -227 -52 -321 -82 -471 -152 -897 -449 -1217 -849 -128
-160 -296 -447 -358 -610 -76 -202 -108 -306 -146 -489 -27 -124 -28 -144 -30
-450 -3 -276 -1 -336 16 -435 10 -63 21 -124 24 -135 2 -11 12 -51 21 -89 78
-331 261 -697 492 -986 61 -77 224 -245 314 -326 119 -107 348 -260 524 -351
228 -117 562 -222 790 -248 33 -4 69 -9 80 -12 42 -10 454 -11 540 -1 75 8
272 42 364 62 115 26 357 115 501 185 514 249 937 676 1187 1198 35 73 63 138
63 146 0 7 4 17 8 22 33 37 136 422 156 580 21 167 27 423 13 585 -7 83 -10
109 -23 180 -4 19 -8 46 -10 60 -3 26 -32 147 -58 241 -28 106 -98 283 -161
414 -181 370 -442 681 -792 944 -45 33 -84 61 -86 61 -3 0 -31 18 -63 39 -258
172 -703 333 -1014 366 -36 4 -74 9 -85 12 -21 4 -422 12 -427 8z"/>
</g>
</svg>
